<svg width="694" height="155" viewBox="0 0 694 155" fill="none" xmlns="http://www.w3.org/2000/svg">
<path d="M30.1818 124H2.90909L33.6364 30.9091H68.1818L98.9091 124H71.6364L51.2727 56.5455H50.5455L30.1818 124ZM25.0909 87.2727H76.3636V106.182H25.0909V87.2727ZM107.875 124V30.9091H148.239C155.33 30.9091 161.284 31.8636 166.102 33.7727C170.951 35.6818 174.602 38.3788 177.057 41.8636C179.542 45.3485 180.784 49.4545 180.784 54.1818C180.784 57.6061 180.027 60.7273 178.511 63.5455C177.027 66.3636 174.936 68.7273 172.239 70.6364C169.542 72.5151 166.39 73.8182 162.784 74.5455V75.4545C166.784 75.6061 170.42 76.6212 173.693 78.5C176.966 80.3485 179.572 82.9091 181.511 86.1818C183.451 89.4242 184.42 93.2424 184.42 97.6364C184.42 102.727 183.087 107.258 180.42 111.227C177.784 115.197 174.027 118.318 169.148 120.591C164.269 122.864 158.451 124 151.693 124H107.875ZM133.148 103.818H144.966C149.208 103.818 152.39 103.03 154.511 101.455C156.633 99.8485 157.693 97.4848 157.693 94.3636C157.693 92.1818 157.193 90.3333 156.193 88.8182C155.193 87.303 153.769 86.1515 151.92 85.3636C150.102 84.5758 147.905 84.1818 145.33 84.1818H133.148V103.818ZM133.148 68.5455H143.511C145.723 68.5455 147.678 68.197 149.375 67.5C151.072 66.803 152.39 65.803 153.33 64.5C154.299 63.1667 154.784 61.5455 154.784 59.6364C154.784 56.7576 153.754 54.5606 151.693 53.0455C149.633 51.5 147.027 50.7273 143.875 50.7273H133.148V68.5455ZM283.557 77.4545C283.557 87.8182 281.542 96.5606 277.511 103.682C273.481 110.773 268.042 116.152 261.193 119.818C254.345 123.455 246.708 125.273 238.284 125.273C229.799 125.273 222.133 123.439 215.284 119.773C208.466 116.076 203.042 110.682 199.011 103.591C195.011 96.4697 193.011 87.7576 193.011 77.4545C193.011 67.0909 195.011 58.3636 199.011 51.2727C203.042 44.1515 208.466 38.7727 215.284 35.1364C222.133 31.4697 229.799 29.6364 238.284 29.6364C246.708 29.6364 254.345 31.4697 261.193 35.1364C268.042 38.7727 273.481 44.1515 277.511 51.2727C281.542 58.3636 283.557 67.0909 283.557 77.4545ZM257.557 77.4545C257.557 71.8788 256.814 67.1818 255.33 63.3636C253.875 59.5151 251.708 56.6061 248.83 54.6364C245.981 52.6364 242.466 51.6364 238.284 51.6364C234.102 51.6364 230.572 52.6364 227.693 54.6364C224.845 56.6061 222.678 59.5151 221.193 63.3636C219.739 67.1818 219.011 71.8788 219.011 77.4545C219.011 83.0303 219.739 87.7424 221.193 91.5909C222.678 95.4091 224.845 98.3182 227.693 100.318C230.572 102.288 234.102 103.273 238.284 103.273C242.466 103.273 245.981 102.288 248.83 100.318C251.708 98.3182 253.875 95.4091 255.33 91.5909C256.814 87.7424 257.557 83.0303 257.557 77.4545ZM350.341 30.9091H375.614V90.5455C375.614 97.6364 373.917 103.773 370.523 108.955C367.159 114.106 362.462 118.091 356.432 120.909C350.402 123.697 343.402 125.091 335.432 125.091C327.402 125.091 320.371 123.697 314.341 120.909C308.311 118.091 303.614 114.106 300.25 108.955C296.917 103.773 295.25 97.6364 295.25 90.5455V30.9091H320.523V88.3636C320.523 91.2424 321.159 93.8182 322.432 96.0909C323.705 98.3333 325.462 100.091 327.705 101.364C329.977 102.636 332.553 103.273 335.432 103.273C338.341 103.273 340.917 102.636 343.159 101.364C345.402 100.091 347.159 98.3333 348.432 96.0909C349.705 93.8182 350.341 91.2424 350.341 88.3636V30.9091ZM385.08 51.2727V30.9091H465.989V51.2727H437.989V124H413.08V51.2727H385.08ZM501 30.9091H532.455L554.091 83.6364H555.182L576.818 30.9091H608.273V124H583.545V70.1818H582.818L562.091 123.273H547.182L526.455 69.8182H525.727V124H501V30.9091ZM620.25 124V30.9091H687.341V51.2727H645.523V67.2727H683.886V87.6364H645.523V103.636H687.159V124H620.25Z" fill="#6D676E" fill-opacity="0.3"/>
<path d="M108.102 112H92.2841L116.386 42.1818H135.409L159.477 112H143.659L126.17 58.1364H125.625L108.102 112ZM107.114 84.5568H144.477V96.0795H107.114V84.5568ZM167.881 112V42.1818H195.835C200.972 42.1818 205.256 42.9432 208.688 44.4659C212.119 45.9886 214.699 48.1023 216.426 50.8068C218.153 53.4886 219.017 56.5795 219.017 60.0795C219.017 62.8068 218.472 65.2045 217.381 67.2727C216.29 69.3182 214.79 71 212.881 72.3182C210.994 73.6136 208.835 74.5341 206.403 75.0795V75.7614C209.063 75.875 211.551 76.625 213.869 78.0114C216.21 79.3977 218.108 81.3409 219.562 83.8409C221.017 86.3182 221.744 89.2727 221.744 92.7045C221.744 96.4091 220.824 99.7159 218.983 102.625C217.165 105.511 214.472 107.795 210.903 109.477C207.335 111.159 202.938 112 197.71 112H167.881ZM182.642 99.9318H194.676C198.79 99.9318 201.79 99.1477 203.676 97.5795C205.563 95.9886 206.506 93.875 206.506 91.2386C206.506 89.3068 206.04 87.6023 205.108 86.125C204.176 84.6477 202.847 83.4886 201.119 82.6477C199.415 81.8068 197.381 81.3864 195.017 81.3864H182.642V99.9318ZM182.642 71.3977H193.585C195.608 71.3977 197.403 71.0455 198.972 70.3409C200.563 69.6136 201.813 68.5909 202.722 67.2727C203.653 65.9545 204.119 64.375 204.119 62.5341C204.119 60.0114 203.222 57.9773 201.426 56.4318C199.653 54.8864 197.131 54.1136 193.858 54.1136H182.642V71.3977ZM295.509 77.0909C295.509 84.7045 294.065 91.1818 291.179 96.5227C288.315 101.864 284.406 105.943 279.452 108.761C274.52 111.557 268.974 112.955 262.815 112.955C256.611 112.955 251.043 111.545 246.111 108.727C241.179 105.909 237.281 101.83 234.418 96.4886C231.554 91.1477 230.122 84.6818 230.122 77.0909C230.122 69.4773 231.554 63 234.418 57.6591C237.281 52.3182 241.179 48.25 246.111 45.4545C251.043 42.6364 256.611 41.2273 262.815 41.2273C268.974 41.2273 274.52 42.6364 279.452 45.4545C284.406 48.25 288.315 52.3182 291.179 57.6591C294.065 63 295.509 69.4773 295.509 77.0909ZM280.543 77.0909C280.543 72.1591 279.804 68 278.327 64.6136C276.872 61.2273 274.815 58.6591 272.156 56.9091C269.497 55.1591 266.384 54.2841 262.815 54.2841C259.247 54.2841 256.134 55.1591 253.474 56.9091C250.815 58.6591 248.747 61.2273 247.27 64.6136C245.815 68 245.088 72.1591 245.088 77.0909C245.088 82.0227 245.815 86.1818 247.27 89.5682C248.747 92.9545 250.815 95.5227 253.474 97.2727C256.134 99.0227 259.247 99.8977 262.815 99.8977C266.384 99.8977 269.497 99.0227 272.156 97.2727C274.815 95.5227 276.872 92.9545 278.327 89.5682C279.804 86.1818 280.543 82.0227 280.543 77.0909ZM349.568 42.1818H364.33V87.5227C364.33 92.6136 363.114 97.0682 360.682 100.886C358.273 104.705 354.898 107.682 350.557 109.818C346.216 111.932 341.159 112.989 335.386 112.989C329.591 112.989 324.523 111.932 320.182 109.818C315.841 107.682 312.466 104.705 310.057 100.886C307.648 97.0682 306.443 92.6136 306.443 87.5227V42.1818H321.205V86.2614C321.205 88.9205 321.784 91.2841 322.943 93.3523C324.125 95.4205 325.784 97.0455 327.92 98.2273C330.057 99.4091 332.545 100 335.386 100C338.25 100 340.739 99.4091 342.852 98.2273C344.989 97.0455 346.636 95.4205 347.795 93.3523C348.977 91.2841 349.568 88.9205 349.568 86.2614V42.1818ZM373.815 54.3523V42.1818H431.156V54.3523H409.781V112H395.19V54.3523H373.815ZM462.818 42.1818H481.023L500.25 89.0909H501.068L520.295 42.1818H538.5V112H524.182V66.5568H523.602L505.534 111.659H495.784L477.716 66.3864H477.136V112H462.818V42.1818ZM550.662 112V42.1818H597.707V54.3523H565.423V70.9886H595.287V83.1591H565.423V99.8295H597.844V112H550.662Z" fill="#FAA916"/>
</svg>
