<svg width="661" height="372" viewBox="0 0 661 372" fill="none" xmlns="http://www.w3.org/2000/svg">
<path d="M40.7273 341H9.18182V247.909H41.3636C50.6061 247.909 58.5455 249.773 65.1818 253.5C71.8485 257.197 76.9697 262.515 80.5455 269.455C84.1212 276.394 85.9091 284.697 85.9091 294.364C85.9091 304.061 84.1061 312.394 80.5 319.364C76.9242 326.333 71.7576 331.682 65 335.409C58.2727 339.136 50.1818 341 40.7273 341ZM26.0455 326.409H39.9091C46.3939 326.409 51.803 325.227 56.1364 322.864C60.4697 320.47 63.7273 316.909 65.9091 312.182C68.0909 307.424 69.1818 301.485 69.1818 294.364C69.1818 287.242 68.0909 281.333 65.9091 276.636C63.7273 271.909 60.5 268.379 56.2273 266.045C51.9848 263.682 46.7121 262.5 40.4091 262.5H26.0455V326.409ZM132.114 342.364C125.114 342.364 119.068 340.909 113.977 338C108.917 335.061 105.023 330.909 102.295 325.545C99.5682 320.152 98.2045 313.803 98.2045 306.5C98.2045 299.318 99.5682 293.015 102.295 287.591C105.053 282.136 108.902 277.894 113.841 274.864C118.78 271.803 124.583 270.273 131.25 270.273C135.553 270.273 139.614 270.97 143.432 272.364C147.28 273.727 150.674 275.848 153.614 278.727C156.583 281.606 158.917 285.273 160.614 289.727C162.311 294.152 163.159 299.424 163.159 305.545V310.591H105.932V299.5H147.386C147.356 296.348 146.674 293.545 145.341 291.091C144.008 288.606 142.144 286.652 139.75 285.227C137.386 283.803 134.629 283.091 131.477 283.091C128.114 283.091 125.159 283.909 122.614 285.545C120.068 287.152 118.083 289.273 116.659 291.909C115.265 294.515 114.553 297.379 114.523 300.5V310.182C114.523 314.242 115.265 317.727 116.75 320.636C118.235 323.515 120.311 325.727 122.977 327.273C125.644 328.788 128.765 329.545 132.341 329.545C134.735 329.545 136.902 329.212 138.841 328.545C140.78 327.848 142.462 326.833 143.886 325.5C145.311 324.167 146.386 322.515 147.114 320.545L162.477 322.273C161.508 326.333 159.659 329.879 156.932 332.909C154.235 335.909 150.78 338.242 146.568 339.909C142.356 341.545 137.538 342.364 132.114 342.364ZM237.443 271.182L212.58 341H194.398L169.534 271.182H187.08L203.125 323.045H203.852L219.943 271.182H237.443ZM277.364 342.364C270.364 342.364 264.318 340.909 259.227 338C254.167 335.061 250.273 330.909 247.545 325.545C244.818 320.152 243.455 313.803 243.455 306.5C243.455 299.318 244.818 293.015 247.545 287.591C250.303 282.136 254.152 277.894 259.091 274.864C264.03 271.803 269.833 270.273 276.5 270.273C280.803 270.273 284.864 270.97 288.682 272.364C292.53 273.727 295.924 275.848 298.864 278.727C301.833 281.606 304.167 285.273 305.864 289.727C307.561 294.152 308.409 299.424 308.409 305.545V310.591H251.182V299.5H292.636C292.606 296.348 291.924 293.545 290.591 291.091C289.258 288.606 287.394 286.652 285 285.227C282.636 283.803 279.879 283.091 276.727 283.091C273.364 283.091 270.409 283.909 267.864 285.545C265.318 287.152 263.333 289.273 261.909 291.909C260.515 294.515 259.803 297.379 259.773 300.5V310.182C259.773 314.242 260.515 317.727 262 320.636C263.485 323.515 265.561 325.727 268.227 327.273C270.894 328.788 274.015 329.545 277.591 329.545C279.985 329.545 282.152 329.212 284.091 328.545C286.03 327.848 287.712 326.833 289.136 325.5C290.561 324.167 291.636 322.515 292.364 320.545L307.727 322.273C306.758 326.333 304.909 329.879 302.182 332.909C299.485 335.909 296.03 338.242 291.818 339.909C287.606 341.545 282.788 342.364 277.364 342.364ZM338.784 247.909V341H322.33V247.909H338.784ZM386.159 342.364C379.341 342.364 373.432 340.864 368.432 337.864C363.432 334.864 359.553 330.667 356.795 325.273C354.068 319.879 352.705 313.576 352.705 306.364C352.705 299.152 354.068 292.833 356.795 287.409C359.553 281.985 363.432 277.773 368.432 274.773C373.432 271.773 379.341 270.273 386.159 270.273C392.977 270.273 398.886 271.773 403.886 274.773C408.886 277.773 412.75 281.985 415.477 287.409C418.235 292.833 419.614 299.152 419.614 306.364C419.614 313.576 418.235 319.879 415.477 325.273C412.75 330.667 408.886 334.864 403.886 337.864C398.886 340.864 392.977 342.364 386.159 342.364ZM386.25 329.182C389.947 329.182 393.038 328.167 395.523 326.136C398.008 324.076 399.856 321.318 401.068 317.864C402.311 314.409 402.932 310.561 402.932 306.318C402.932 302.045 402.311 298.182 401.068 294.727C399.856 291.242 398.008 288.47 395.523 286.409C393.038 284.348 389.947 283.318 386.25 283.318C382.462 283.318 379.311 284.348 376.795 286.409C374.311 288.47 372.447 291.242 371.205 294.727C369.992 298.182 369.386 302.045 369.386 306.318C369.386 310.561 369.992 314.409 371.205 317.864C372.447 321.318 374.311 324.076 376.795 326.136C379.311 328.167 382.462 329.182 386.25 329.182ZM433.58 367.182V271.182H449.761V282.727H450.716C451.564 281.03 452.761 279.227 454.307 277.318C455.852 275.379 457.943 273.727 460.58 272.364C463.216 270.97 466.58 270.273 470.67 270.273C476.064 270.273 480.928 271.652 485.261 274.409C489.625 277.136 493.08 281.182 495.625 286.545C498.201 291.879 499.489 298.424 499.489 306.182C499.489 313.848 498.231 320.364 495.716 325.727C493.201 331.091 489.777 335.182 485.443 338C481.11 340.818 476.201 342.227 470.716 342.227C466.716 342.227 463.398 341.561 460.761 340.227C458.125 338.894 456.004 337.288 454.398 335.409C452.822 333.5 451.595 331.697 450.716 330H450.034V367.182H433.58ZM449.716 306.091C449.716 310.606 450.352 314.561 451.625 317.955C452.928 321.348 454.792 324 457.216 325.909C459.67 327.788 462.64 328.727 466.125 328.727C469.761 328.727 472.807 327.758 475.261 325.818C477.716 323.848 479.564 321.167 480.807 317.773C482.08 314.348 482.716 310.455 482.716 306.091C482.716 301.758 482.095 297.909 480.852 294.545C479.61 291.182 477.761 288.545 475.307 286.636C472.852 284.727 469.792 283.773 466.125 283.773C462.61 283.773 459.625 284.697 457.17 286.545C454.716 288.394 452.852 290.985 451.58 294.318C450.337 297.652 449.716 301.576 449.716 306.091ZM544.489 342.364C537.489 342.364 531.443 340.909 526.352 338C521.292 335.061 517.398 330.909 514.67 325.545C511.943 320.152 510.58 313.803 510.58 306.5C510.58 299.318 511.943 293.015 514.67 287.591C517.428 282.136 521.277 277.894 526.216 274.864C531.155 271.803 536.958 270.273 543.625 270.273C547.928 270.273 551.989 270.97 555.807 272.364C559.655 273.727 563.049 275.848 565.989 278.727C568.958 281.606 571.292 285.273 572.989 289.727C574.686 294.152 575.534 299.424 575.534 305.545V310.591H518.307V299.5H559.761C559.731 296.348 559.049 293.545 557.716 291.091C556.383 288.606 554.519 286.652 552.125 285.227C549.761 283.803 547.004 283.091 543.852 283.091C540.489 283.091 537.534 283.909 534.989 285.545C532.443 287.152 530.458 289.273 529.034 291.909C527.64 294.515 526.928 297.379 526.898 300.5V310.182C526.898 314.242 527.64 317.727 529.125 320.636C530.61 323.515 532.686 325.727 535.352 327.273C538.019 328.788 541.14 329.545 544.716 329.545C547.11 329.545 549.277 329.212 551.216 328.545C553.155 327.848 554.837 326.833 556.261 325.5C557.686 324.167 558.761 322.515 559.489 320.545L574.852 322.273C573.883 326.333 572.034 329.879 569.307 332.909C566.61 335.909 563.155 338.242 558.943 339.909C554.731 341.545 549.913 342.364 544.489 342.364ZM589.455 341V271.182H605.409V282.818H606.136C607.409 278.788 609.591 275.682 612.682 273.5C615.803 271.288 619.364 270.182 623.364 270.182C624.273 270.182 625.288 270.227 626.409 270.318C627.561 270.379 628.515 270.485 629.273 270.636V285.773C628.576 285.53 627.47 285.318 625.955 285.136C624.47 284.924 623.03 284.818 621.636 284.818C618.636 284.818 615.939 285.47 613.545 286.773C611.182 288.045 609.318 289.818 607.955 292.091C606.591 294.364 605.909 296.985 605.909 299.955V341H589.455Z" fill="#CECECE"/>
<path d="M642.341 342C639.583 342 637.22 341.03 635.25 339.091C633.28 337.152 632.311 334.788 632.341 332C632.311 329.273 633.28 326.939 635.25 325C637.22 323.061 639.583 322.091 642.341 322.091C645.008 322.091 647.326 323.061 649.295 325C651.295 326.939 652.311 329.273 652.341 332C652.311 333.848 651.826 335.53 650.886 337.045C649.977 338.561 648.765 339.773 647.25 340.682C645.765 341.561 644.129 342 642.341 342Z" fill="#FAA916"/>
<path d="M9.18182 217V123.909H68.8182V138.045H26.0455V163.318H64.7273V177.455H26.0455V217H9.18182ZM123.58 187.636V147.182H140.034V217H124.08V204.591H123.352C121.777 208.5 119.186 211.697 115.58 214.182C112.004 216.667 107.595 217.909 102.352 217.909C97.7765 217.909 93.7311 216.894 90.2159 214.864C86.7311 212.803 84.0038 209.818 82.0341 205.909C80.0644 201.97 79.0795 197.212 79.0795 191.636V147.182H95.5341V189.091C95.5341 193.515 96.7462 197.03 99.1705 199.636C101.595 202.242 104.777 203.545 108.716 203.545C111.14 203.545 113.489 202.955 115.761 201.773C118.034 200.591 119.898 198.833 121.352 196.5C122.837 194.136 123.58 191.182 123.58 187.636ZM173.409 123.909V217H156.955V123.909H173.409ZM206.784 123.909V217H190.33V123.909H206.784ZM266.023 171.455V185H224.114V171.455H266.023ZM334.648 149.5C334.223 145.53 332.436 142.439 329.284 140.227C326.163 138.015 322.102 136.909 317.102 136.909C313.587 136.909 310.572 137.439 308.057 138.5C305.542 139.561 303.617 141 302.284 142.818C300.951 144.636 300.269 146.712 300.239 149.045C300.239 150.985 300.678 152.667 301.557 154.091C302.466 155.515 303.693 156.727 305.239 157.727C306.784 158.697 308.496 159.515 310.375 160.182C312.254 160.848 314.148 161.409 316.057 161.864L324.784 164.045C328.299 164.864 331.678 165.97 334.92 167.364C338.193 168.758 341.117 170.515 343.693 172.636C346.299 174.758 348.36 177.318 349.875 180.318C351.39 183.318 352.148 186.833 352.148 190.864C352.148 196.318 350.754 201.121 347.966 205.273C345.178 209.394 341.148 212.621 335.875 214.955C330.633 217.258 324.284 218.409 316.83 218.409C309.587 218.409 303.299 217.288 297.966 215.045C292.663 212.803 288.511 209.53 285.511 205.227C282.542 200.924 280.936 195.682 280.693 189.5H297.284C297.527 192.742 298.527 195.439 300.284 197.591C302.042 199.742 304.33 201.348 307.148 202.409C309.996 203.47 313.178 204 316.693 204C320.36 204 323.572 203.455 326.33 202.364C329.117 201.242 331.299 199.697 332.875 197.727C334.451 195.727 335.254 193.394 335.284 190.727C335.254 188.303 334.542 186.303 333.148 184.727C331.754 183.121 329.799 181.788 327.284 180.727C324.799 179.636 321.89 178.667 318.557 177.818L307.966 175.091C300.299 173.121 294.239 170.136 289.784 166.136C285.36 162.106 283.148 156.758 283.148 150.091C283.148 144.606 284.633 139.803 287.602 135.682C290.602 131.561 294.678 128.364 299.83 126.091C304.981 123.788 310.814 122.636 317.33 122.636C323.936 122.636 329.723 123.788 334.693 126.091C339.693 128.364 343.617 131.53 346.466 135.591C349.314 139.621 350.784 144.258 350.875 149.5H334.648ZM401.318 147.182V159.909H361.182V147.182H401.318ZM371.091 130.455H387.545V196C387.545 198.212 387.879 199.909 388.545 201.091C389.242 202.242 390.152 203.03 391.273 203.455C392.394 203.879 393.636 204.091 395 204.091C396.03 204.091 396.97 204.015 397.818 203.864C398.697 203.712 399.364 203.576 399.818 203.455L402.591 216.318C401.712 216.621 400.455 216.955 398.818 217.318C397.212 217.682 395.242 217.894 392.909 217.955C388.788 218.076 385.076 217.455 381.773 216.091C378.47 214.697 375.848 212.545 373.909 209.636C372 206.727 371.061 203.091 371.091 198.727V130.455ZM435.17 218.409C430.746 218.409 426.761 217.621 423.216 216.045C419.701 214.439 416.913 212.076 414.852 208.955C412.822 205.833 411.807 201.985 411.807 197.409C411.807 193.47 412.534 190.212 413.989 187.636C415.443 185.061 417.428 183 419.943 181.455C422.458 179.909 425.292 178.742 428.443 177.955C431.625 177.136 434.913 176.545 438.307 176.182C442.398 175.758 445.716 175.379 448.261 175.045C450.807 174.682 452.655 174.136 453.807 173.409C454.989 172.652 455.58 171.485 455.58 169.909V169.636C455.58 166.212 454.564 163.561 452.534 161.682C450.504 159.803 447.58 158.864 443.761 158.864C439.731 158.864 436.534 159.742 434.17 161.5C431.837 163.258 430.261 165.333 429.443 167.727L414.08 165.545C415.292 161.303 417.292 157.758 420.08 154.909C422.867 152.03 426.277 149.879 430.307 148.455C434.337 147 438.792 146.273 443.67 146.273C447.034 146.273 450.383 146.667 453.716 147.455C457.049 148.242 460.095 149.545 462.852 151.364C465.61 153.152 467.822 155.591 469.489 158.682C471.186 161.773 472.034 165.636 472.034 170.273V217H456.216V207.409H455.67C454.67 209.348 453.261 211.167 451.443 212.864C449.655 214.53 447.398 215.879 444.67 216.909C441.973 217.909 438.807 218.409 435.17 218.409ZM439.443 206.318C442.746 206.318 445.61 205.667 448.034 204.364C450.458 203.03 452.322 201.273 453.625 199.091C454.958 196.909 455.625 194.53 455.625 191.955V183.727C455.11 184.152 454.231 184.545 452.989 184.909C451.777 185.273 450.413 185.591 448.898 185.864C447.383 186.136 445.883 186.379 444.398 186.591C442.913 186.803 441.625 186.985 440.534 187.136C438.08 187.47 435.883 188.015 433.943 188.773C432.004 189.53 430.473 190.591 429.352 191.955C428.231 193.288 427.67 195.015 427.67 197.136C427.67 200.167 428.777 202.455 430.989 204C433.201 205.545 436.019 206.318 439.443 206.318ZM519.034 218.364C512.064 218.364 506.08 216.833 501.08 213.773C496.11 210.712 492.277 206.485 489.58 201.091C486.913 195.667 485.58 189.424 485.58 182.364C485.58 175.273 486.943 169.015 489.67 163.591C492.398 158.136 496.246 153.894 501.216 150.864C506.216 147.803 512.125 146.273 518.943 146.273C524.61 146.273 529.625 147.318 533.989 149.409C538.383 151.47 541.883 154.394 544.489 158.182C547.095 161.939 548.58 166.333 548.943 171.364H533.216C532.58 168 531.064 165.197 528.67 162.955C526.307 160.682 523.14 159.545 519.17 159.545C515.807 159.545 512.852 160.455 510.307 162.273C507.761 164.061 505.777 166.636 504.352 170C502.958 173.364 502.261 177.394 502.261 182.091C502.261 186.848 502.958 190.939 504.352 194.364C505.746 197.758 507.701 200.379 510.216 202.227C512.761 204.045 515.746 204.955 519.17 204.955C521.595 204.955 523.761 204.5 525.67 203.591C527.61 202.652 529.231 201.303 530.534 199.545C531.837 197.788 532.731 195.652 533.216 193.136H548.943C548.549 198.076 547.095 202.455 544.58 206.273C542.064 210.061 538.64 213.03 534.307 215.182C529.973 217.303 524.883 218.364 519.034 218.364ZM577.455 195.091L577.409 175.227H580.045L605.136 147.182H624.364L593.5 181.545H590.091L577.455 195.091ZM562.455 217V123.909H578.909V217H562.455ZM606.273 217L583.545 185.227L594.636 173.636L625.955 217H606.273Z" fill="#CECECE"/>
<path d="M19.5341 23.1818V93H6.88636V23.1818H19.5341ZM43.1506 23.1818V30.1364C43.1506 32.1364 42.7642 34.2159 41.9915 36.375C41.2415 38.5114 40.2074 40.5568 38.8892 42.5114C37.571 44.4432 36.071 46.1023 34.3892 47.4886L28.6619 43.7727C29.9119 41.8864 31.0028 39.8523 31.9347 37.6705C32.8665 35.4659 33.3324 32.9773 33.3324 30.2045V23.1818H43.1506ZM51.1534 93V40.6364H62.9489V49.5341H63.5625C64.6534 46.5341 66.4602 44.1932 68.983 42.5114C71.5057 40.8068 74.517 39.9545 78.017 39.9545C81.5625 39.9545 84.5511 40.8182 86.983 42.5455C89.4375 44.25 91.1648 46.5795 92.1648 49.5341H92.7102C93.8693 46.625 95.8239 44.3068 98.5739 42.5795C101.347 40.8295 104.631 39.9545 108.426 39.9545C113.244 39.9545 117.176 41.4773 120.222 44.5227C123.267 47.5682 124.79 52.0114 124.79 57.8523V93H112.415V59.7614C112.415 56.5114 111.551 54.1364 109.824 52.6364C108.097 51.1136 105.983 50.3523 103.483 50.3523C100.506 50.3523 98.1761 51.2841 96.4943 53.1477C94.8352 54.9886 94.0057 57.3864 94.0057 60.3409V93H81.9034V59.25C81.9034 56.5455 81.0852 54.3864 79.4489 52.7727C77.8352 51.1591 75.7216 50.3523 73.108 50.3523C71.3352 50.3523 69.7216 50.8068 68.267 51.7159C66.8125 52.6023 65.6534 53.8636 64.7898 55.5C63.9261 57.1136 63.4943 59 63.4943 61.1591V93H51.1534ZM176.19 94.0568C172.872 94.0568 169.884 93.4659 167.224 92.2841C164.588 91.0795 162.497 89.3068 160.952 86.9659C159.429 84.625 158.668 81.7386 158.668 78.3068C158.668 75.3523 159.213 72.9091 160.304 70.9773C161.395 69.0455 162.884 67.5 164.77 66.3409C166.656 65.1818 168.781 64.3068 171.145 63.7159C173.531 63.1023 175.997 62.6591 178.543 62.3864C181.611 62.0682 184.099 61.7841 186.009 61.5341C187.918 61.2614 189.304 60.8523 190.168 60.3068C191.054 59.7386 191.497 58.8636 191.497 57.6818V57.4773C191.497 54.9091 190.736 52.9205 189.213 51.5114C187.69 50.1023 185.497 49.3977 182.634 49.3977C179.611 49.3977 177.213 50.0568 175.44 51.375C173.69 52.6932 172.509 54.25 171.895 56.0455L160.372 54.4091C161.281 51.2273 162.781 48.5682 164.872 46.4318C166.963 44.2727 169.52 42.6591 172.543 41.5909C175.565 40.5 178.906 39.9545 182.565 39.9545C185.088 39.9545 187.599 40.25 190.099 40.8409C192.599 41.4318 194.884 42.4091 196.952 43.7727C199.02 45.1136 200.679 46.9432 201.929 49.2614C203.202 51.5795 203.838 54.4773 203.838 57.9545V93H191.974V85.8068H191.565C190.815 87.2614 189.759 88.625 188.395 89.8977C187.054 91.1477 185.361 92.1591 183.315 92.9318C181.293 93.6818 178.918 94.0568 176.19 94.0568ZM179.395 84.9886C181.872 84.9886 184.02 84.5 185.838 83.5227C187.656 82.5227 189.054 81.2045 190.031 79.5682C191.031 77.9318 191.531 76.1477 191.531 74.2159V68.0455C191.145 68.3636 190.486 68.6591 189.554 68.9318C188.645 69.2045 187.622 69.4432 186.486 69.6477C185.349 69.8523 184.224 70.0341 183.111 70.1932C181.997 70.3523 181.031 70.4886 180.213 70.6023C178.372 70.8523 176.724 71.2614 175.27 71.8295C173.815 72.3977 172.668 73.1932 171.827 74.2159C170.986 75.2159 170.565 76.5114 170.565 78.1023C170.565 80.375 171.395 82.0909 173.054 83.25C174.713 84.4091 176.827 84.9886 179.395 84.9886Z" fill="#6D676E"/>
</svg>
