<svg width="749" height="155" viewBox="0 0 749 155" fill="none" xmlns="http://www.w3.org/2000/svg">
<path d="M6 124V30.9091H46.1818C53.0909 30.9091 59.1364 32.2727 64.3182 35C69.5 37.7273 73.5303 41.5606 76.4091 46.5C79.2879 51.4394 80.7273 57.2121 80.7273 63.8182C80.7273 70.4848 79.2424 76.2576 76.2727 81.1364C73.3333 86.0152 69.197 89.7727 63.8636 92.4091C58.5606 95.0455 52.3636 96.3636 45.2727 96.3636H21.2727V76.7273H40.1818C43.1515 76.7273 45.6818 76.2121 47.7727 75.1818C49.8939 74.1212 51.5152 72.6212 52.6364 70.6818C53.7879 68.7424 54.3636 66.4545 54.3636 63.8182C54.3636 61.1515 53.7879 58.8788 52.6364 57C51.5152 55.0909 49.8939 53.6364 47.7727 52.6364C45.6818 51.6061 43.1515 51.0909 40.1818 51.0909H31.2727V124H6ZM180.182 77.4545C180.182 87.8182 178.167 96.5606 174.136 103.682C170.106 110.773 164.667 116.152 157.818 119.818C150.97 123.455 143.333 125.273 134.909 125.273C126.424 125.273 118.758 123.439 111.909 119.773C105.091 116.076 99.6667 110.682 95.6364 103.591C91.6364 96.4697 89.6364 87.7576 89.6364 77.4545C89.6364 67.0909 91.6364 58.3636 95.6364 51.2727C99.6667 44.1515 105.091 38.7727 111.909 35.1364C118.758 31.4697 126.424 29.6364 134.909 29.6364C143.333 29.6364 150.97 31.4697 157.818 35.1364C164.667 38.7727 170.106 44.1515 174.136 51.2727C178.167 58.3636 180.182 67.0909 180.182 77.4545ZM154.182 77.4545C154.182 71.8788 153.439 67.1818 151.955 63.3636C150.5 59.5151 148.333 56.6061 145.455 54.6364C142.606 52.6364 139.091 51.6364 134.909 51.6364C130.727 51.6364 127.197 52.6364 124.318 54.6364C121.47 56.6061 119.303 59.5151 117.818 63.3636C116.364 67.1818 115.636 71.8788 115.636 77.4545C115.636 83.0303 116.364 87.7424 117.818 91.5909C119.303 95.4091 121.47 98.3182 124.318 100.318C127.197 102.288 130.727 103.273 134.909 103.273C139.091 103.273 142.606 102.288 145.455 100.318C148.333 98.3182 150.5 95.4091 151.955 91.5909C153.439 87.7424 154.182 83.0303 154.182 77.4545ZM191.875 124V30.9091H232.057C238.966 30.9091 245.011 32.1667 250.193 34.6818C255.375 37.197 259.405 40.8182 262.284 45.5455C265.163 50.2727 266.602 55.9394 266.602 62.5455C266.602 69.2121 265.117 74.8333 262.148 79.4091C259.208 83.9848 255.072 87.4394 249.739 89.7727C244.436 92.1061 238.239 93.2727 231.148 93.2727H207.148V73.6364H226.057C229.027 73.6364 231.557 73.2727 233.648 72.5455C235.769 71.7879 237.39 70.5909 238.511 68.9545C239.663 67.3182 240.239 65.1818 240.239 62.5455C240.239 59.8788 239.663 57.7121 238.511 56.0455C237.39 54.3485 235.769 53.1061 233.648 52.3182C231.557 51.5 229.027 51.0909 226.057 51.0909H217.148V124H191.875ZM246.42 81.2727L269.693 124H242.239L219.511 81.2727H246.42ZM274.83 51.2727V30.9091H355.739V51.2727H327.739V124H302.83V51.2727H274.83ZM365.25 124V30.9091H430.705V51.2727H390.523V67.2727H426.705V87.6364H390.523V124H365.25ZM530.182 77.4545C530.182 87.8182 528.167 96.5606 524.136 103.682C520.106 110.773 514.667 116.152 507.818 119.818C500.97 123.455 493.333 125.273 484.909 125.273C476.424 125.273 468.758 123.439 461.909 119.773C455.091 116.076 449.667 110.682 445.636 103.591C441.636 96.4697 439.636 87.7576 439.636 77.4545C439.636 67.0909 441.636 58.3636 445.636 51.2727C449.667 44.1515 455.091 38.7727 461.909 35.1364C468.758 31.4697 476.424 29.6364 484.909 29.6364C493.333 29.6364 500.97 31.4697 507.818 35.1364C514.667 38.7727 520.106 44.1515 524.136 51.2727C528.167 58.3636 530.182 67.0909 530.182 77.4545ZM504.182 77.4545C504.182 71.8788 503.439 67.1818 501.955 63.3636C500.5 59.5151 498.333 56.6061 495.455 54.6364C492.606 52.6364 489.091 51.6364 484.909 51.6364C480.727 51.6364 477.197 52.6364 474.318 54.6364C471.47 56.6061 469.303 59.5151 467.818 63.3636C466.364 67.1818 465.636 71.8788 465.636 77.4545C465.636 83.0303 466.364 87.7424 467.818 91.5909C469.303 95.4091 471.47 98.3182 474.318 100.318C477.197 102.288 480.727 103.273 484.909 103.273C489.091 103.273 492.606 102.288 495.455 100.318C498.333 98.3182 500.5 95.4091 501.955 91.5909C503.439 87.7424 504.182 83.0303 504.182 77.4545ZM541.875 124V30.9091H567.148V103.636H604.784V124H541.875ZM640.273 30.9091V124H615V30.9091H640.273ZM742.432 77.4545C742.432 87.8182 740.417 96.5606 736.386 103.682C732.356 110.773 726.917 116.152 720.068 119.818C713.22 123.455 705.583 125.273 697.159 125.273C688.674 125.273 681.008 123.439 674.159 119.773C667.341 116.076 661.917 110.682 657.886 103.591C653.886 96.4697 651.886 87.7576 651.886 77.4545C651.886 67.0909 653.886 58.3636 657.886 51.2727C661.917 44.1515 667.341 38.7727 674.159 35.1364C681.008 31.4697 688.674 29.6364 697.159 29.6364C705.583 29.6364 713.22 31.4697 720.068 35.1364C726.917 38.7727 732.356 44.1515 736.386 51.2727C740.417 58.3636 742.432 67.0909 742.432 77.4545ZM716.432 77.4545C716.432 71.8788 715.689 67.1818 714.205 63.3636C712.75 59.5151 710.583 56.6061 707.705 54.6364C704.856 52.6364 701.341 51.6364 697.159 51.6364C692.977 51.6364 689.447 52.6364 686.568 54.6364C683.72 56.6061 681.553 59.5151 680.068 63.3636C678.614 67.1818 677.886 71.8788 677.886 77.4545C677.886 83.0303 678.614 87.7424 680.068 91.5909C681.553 95.4091 683.72 98.3182 686.568 100.318C689.447 102.288 692.977 103.273 697.159 103.273C701.341 103.273 704.856 102.288 707.705 100.318C710.583 98.3182 712.75 95.4091 714.205 91.5909C715.689 87.7424 716.432 83.0303 716.432 77.4545Z" fill="#6D676E" fill-opacity="0.3"/>
<path d="M104.068 112V42.1818H131.614C136.909 42.1818 141.42 43.1932 145.148 45.2159C148.875 47.2159 151.716 50 153.67 53.5682C155.648 57.1136 156.636 61.2045 156.636 65.8409C156.636 70.4773 155.636 74.5682 153.636 78.1136C151.636 81.6591 148.739 84.4205 144.943 86.3977C141.17 88.375 136.602 89.3636 131.239 89.3636H113.682V77.5341H128.852C131.693 77.5341 134.034 77.0455 135.875 76.0682C137.739 75.0682 139.125 73.6932 140.034 71.9432C140.966 70.1705 141.432 68.1364 141.432 65.8409C141.432 63.5227 140.966 61.5 140.034 59.7727C139.125 58.0227 137.739 56.6705 135.875 55.7159C134.011 54.7386 131.648 54.25 128.784 54.25H118.83V112H104.068ZM230.384 77.0909C230.384 84.7045 228.94 91.1818 226.054 96.5227C223.19 101.864 219.281 105.943 214.327 108.761C209.395 111.557 203.849 112.955 197.69 112.955C191.486 112.955 185.918 111.545 180.986 108.727C176.054 105.909 172.156 101.83 169.293 96.4886C166.429 91.1477 164.997 84.6818 164.997 77.0909C164.997 69.4773 166.429 63 169.293 57.6591C172.156 52.3182 176.054 48.25 180.986 45.4545C185.918 42.6364 191.486 41.2273 197.69 41.2273C203.849 41.2273 209.395 42.6364 214.327 45.4545C219.281 48.25 223.19 52.3182 226.054 57.6591C228.94 63 230.384 69.4773 230.384 77.0909ZM215.418 77.0909C215.418 72.1591 214.679 68 213.202 64.6136C211.747 61.2273 209.69 58.6591 207.031 56.9091C204.372 55.1591 201.259 54.2841 197.69 54.2841C194.122 54.2841 191.009 55.1591 188.349 56.9091C185.69 58.6591 183.622 61.2273 182.145 64.6136C180.69 68 179.963 72.1591 179.963 77.0909C179.963 82.0227 180.69 86.1818 182.145 89.5682C183.622 92.9545 185.69 95.5227 188.349 97.2727C191.009 99.0227 194.122 99.8977 197.69 99.8977C201.259 99.8977 204.372 99.0227 207.031 97.2727C209.69 95.5227 211.747 92.9545 213.202 89.5682C214.679 86.1818 215.418 82.0227 215.418 77.0909ZM241.318 112V42.1818H268.864C274.136 42.1818 278.636 43.125 282.364 45.0114C286.114 46.875 288.966 49.5227 290.92 52.9545C292.898 56.3636 293.886 60.375 293.886 64.9886C293.886 69.625 292.886 73.6136 290.886 76.9545C288.886 80.2727 285.989 82.8182 282.193 84.5909C278.42 86.3636 273.852 87.25 268.489 87.25H250.045V75.3864H266.102C268.92 75.3864 271.261 75 273.125 74.2273C274.989 73.4545 276.375 72.2955 277.284 70.75C278.216 69.2045 278.682 67.2841 278.682 64.9886C278.682 62.6705 278.216 60.7159 277.284 59.125C276.375 57.5341 274.977 56.3295 273.091 55.5114C271.227 54.6705 268.875 54.25 266.034 54.25H256.08V112H241.318ZM279.023 80.2273L296.375 112H280.08L263.102 80.2273H279.023ZM301.659 54.3523V42.1818H359V54.3523H337.625V112H323.034V54.3523H301.659ZM368.443 112V42.1818H414.67V54.3523H383.205V70.9886H411.602V83.1591H383.205V112H368.443ZM488.759 77.0909C488.759 84.7045 487.315 91.1818 484.429 96.5227C481.565 101.864 477.656 105.943 472.702 108.761C467.77 111.557 462.224 112.955 456.065 112.955C449.861 112.955 444.293 111.545 439.361 108.727C434.429 105.909 430.531 101.83 427.668 96.4886C424.804 91.1477 423.372 84.6818 423.372 77.0909C423.372 69.4773 424.804 63 427.668 57.6591C430.531 52.3182 434.429 48.25 439.361 45.4545C444.293 42.6364 449.861 41.2273 456.065 41.2273C462.224 41.2273 467.77 42.6364 472.702 45.4545C477.656 48.25 481.565 52.3182 484.429 57.6591C487.315 63 488.759 69.4773 488.759 77.0909ZM473.793 77.0909C473.793 72.1591 473.054 68 471.577 64.6136C470.122 61.2273 468.065 58.6591 465.406 56.9091C462.747 55.1591 459.634 54.2841 456.065 54.2841C452.497 54.2841 449.384 55.1591 446.724 56.9091C444.065 58.6591 441.997 61.2273 440.52 64.6136C439.065 68 438.338 72.1591 438.338 77.0909C438.338 82.0227 439.065 86.1818 440.52 89.5682C441.997 92.9545 444.065 95.5227 446.724 97.2727C449.384 99.0227 452.497 99.8977 456.065 99.8977C459.634 99.8977 462.747 99.0227 465.406 97.2727C468.065 95.5227 470.122 92.9545 471.577 89.5682C473.054 86.1818 473.793 82.0227 473.793 77.0909ZM499.693 112V42.1818H514.455V99.8295H544.386V112H499.693ZM568.923 42.1818V112H554.162V42.1818H568.923ZM645.227 77.0909C645.227 84.7045 643.784 91.1818 640.898 96.5227C638.034 101.864 634.125 105.943 629.17 108.761C624.239 111.557 618.693 112.955 612.534 112.955C606.33 112.955 600.761 111.545 595.83 108.727C590.898 105.909 587 101.83 584.136 96.4886C581.273 91.1477 579.841 84.6818 579.841 77.0909C579.841 69.4773 581.273 63 584.136 57.6591C587 52.3182 590.898 48.25 595.83 45.4545C600.761 42.6364 606.33 41.2273 612.534 41.2273C618.693 41.2273 624.239 42.6364 629.17 45.4545C634.125 48.25 638.034 52.3182 640.898 57.6591C643.784 63 645.227 69.4773 645.227 77.0909ZM630.261 77.0909C630.261 72.1591 629.523 68 628.045 64.6136C626.591 61.2273 624.534 58.6591 621.875 56.9091C619.216 55.1591 616.102 54.2841 612.534 54.2841C608.966 54.2841 605.852 55.1591 603.193 56.9091C600.534 58.6591 598.466 61.2273 596.989 64.6136C595.534 68 594.807 72.1591 594.807 77.0909C594.807 82.0227 595.534 86.1818 596.989 89.5682C598.466 92.9545 600.534 95.5227 603.193 97.2727C605.852 99.0227 608.966 99.8977 612.534 99.8977C616.102 99.8977 619.216 99.0227 621.875 97.2727C624.534 95.5227 626.591 92.9545 628.045 89.5682C629.523 86.1818 630.261 82.0227 630.261 77.0909Z" fill="#FAA916"/>
</svg>
