<svg width="542" height="155" viewBox="0 0 542 155" fill="none" xmlns="http://www.w3.org/2000/svg">
<path d="M56.1818 60C55.9394 56.9697 54.803 54.6061 52.7727 52.9091C50.7727 51.2121 47.7273 50.3636 43.6364 50.3636C41.0303 50.3636 38.8939 50.6818 37.2273 51.3182C35.5909 51.9242 34.3788 52.7576 33.5909 53.8182C32.803 54.8788 32.3939 56.0909 32.3636 57.4545C32.303 58.5758 32.5 59.5909 32.9545 60.5C33.4394 61.3788 34.197 62.1818 35.2273 62.9091C36.2576 63.6061 37.5758 64.2424 39.1818 64.8182C40.7879 65.3939 42.697 65.9091 44.9091 66.3636L52.5455 68C57.697 69.0909 62.1061 70.5303 65.7727 72.3182C69.4394 74.1061 72.4394 76.2121 74.7727 78.6364C77.1061 81.0303 78.8182 83.7273 79.9091 86.7273C81.0303 89.7273 81.6061 93 81.6364 96.5455C81.6061 102.667 80.0758 107.848 77.0455 112.091C74.0152 116.333 69.6818 119.561 64.0455 121.773C58.4394 123.985 51.697 125.091 43.8182 125.091C35.7273 125.091 28.6667 123.894 22.6364 121.5C16.6364 119.106 11.9697 115.424 8.63636 110.455C5.33333 105.455 3.66667 99.0606 3.63636 91.2727H27.6364C27.7879 94.1212 28.5 96.5152 29.7727 98.4545C31.0455 100.394 32.8333 101.864 35.1364 102.864C37.4697 103.864 40.2424 104.364 43.4545 104.364C46.1515 104.364 48.4091 104.03 50.2273 103.364C52.0455 102.697 53.4242 101.773 54.3636 100.591C55.303 99.4091 55.7879 98.0606 55.8182 96.5455C55.7879 95.1212 55.3182 93.8788 54.4091 92.8182C53.5303 91.7273 52.0758 90.7576 50.0455 89.9091C48.0152 89.0303 45.2727 88.2121 41.8182 87.4545L32.5455 85.4545C24.303 83.6667 17.803 80.6818 13.0455 76.5C8.31818 72.2879 5.9697 66.5455 6 59.2727C5.9697 53.3636 7.54545 48.197 10.7273 43.7727C13.9394 39.3182 18.3788 35.8485 24.0455 33.3636C29.7424 30.8788 36.2727 29.6364 43.6364 29.6364C51.1515 29.6364 57.6515 30.8939 63.1364 33.4091C68.6212 35.9242 72.8485 39.4697 75.8182 44.0455C78.8182 48.5909 80.3333 53.9091 80.3636 60H56.1818ZM110.45 124V30.9091H135.723V68.5455H136.995L164.995 30.9091H194.45L162.995 72.3636L195.177 124H164.995L144.086 89.0909L135.723 100V124H110.45ZM246.423 30.9091V124H221.15V30.9091H246.423ZM277.6 124V30.9091H302.873V103.636H340.509V124H277.6ZM369.925 124V30.9091H395.198V103.636H432.834V124H369.925ZM512.432 60C512.189 56.9697 511.053 54.6061 509.023 52.9091C507.023 51.2121 503.977 50.3636 499.886 50.3636C497.28 50.3636 495.144 50.6818 493.477 51.3182C491.841 51.9242 490.629 52.7576 489.841 53.8182C489.053 54.8788 488.644 56.0909 488.614 57.4545C488.553 58.5758 488.75 59.5909 489.205 60.5C489.689 61.3788 490.447 62.1818 491.477 62.9091C492.508 63.6061 493.826 64.2424 495.432 64.8182C497.038 65.3939 498.947 65.9091 501.159 66.3636L508.795 68C513.947 69.0909 518.356 70.5303 522.023 72.3182C525.689 74.1061 528.689 76.2121 531.023 78.6364C533.356 81.0303 535.068 83.7273 536.159 86.7273C537.28 89.7273 537.856 93 537.886 96.5455C537.856 102.667 536.326 107.848 533.295 112.091C530.265 116.333 525.932 119.561 520.295 121.773C514.689 123.985 507.947 125.091 500.068 125.091C491.977 125.091 484.917 123.894 478.886 121.5C472.886 119.106 468.22 115.424 464.886 110.455C461.583 105.455 459.917 99.0606 459.886 91.2727H483.886C484.038 94.1212 484.75 96.5152 486.023 98.4545C487.295 100.394 489.083 101.864 491.386 102.864C493.72 103.864 496.492 104.364 499.705 104.364C502.402 104.364 504.659 104.03 506.477 103.364C508.295 102.697 509.674 101.773 510.614 100.591C511.553 99.4091 512.038 98.0606 512.068 96.5455C512.038 95.1212 511.568 93.8788 510.659 92.8182C509.78 91.7273 508.326 90.7576 506.295 89.9091C504.265 89.0303 501.523 88.2121 498.068 87.4545L488.795 85.4545C480.553 83.6667 474.053 80.6818 469.295 76.5C464.568 72.2879 462.22 66.5455 462.25 59.2727C462.22 53.3636 463.795 48.197 466.977 43.7727C470.189 39.3182 474.629 35.8485 480.295 33.3636C485.992 30.8788 492.523 29.6364 499.886 29.6364C507.402 29.6364 513.902 30.8939 519.386 33.4091C524.871 35.9242 529.098 39.4697 532.068 44.0455C535.068 48.5909 536.583 53.9091 536.614 60H512.432Z" fill="#6D676E" fill-opacity="0.3"/>
<path d="M150.943 62.2614C150.67 59.5114 149.5 57.375 147.432 55.8523C145.364 54.3295 142.557 53.5682 139.011 53.5682C136.602 53.5682 134.568 53.9091 132.909 54.5909C131.25 55.25 129.977 56.1705 129.091 57.3523C128.227 58.5341 127.795 59.875 127.795 61.375C127.75 62.625 128.011 63.7159 128.58 64.6477C129.17 65.5795 129.977 66.3864 131 67.0682C132.023 67.7273 133.205 68.3068 134.545 68.8068C135.886 69.2841 137.318 69.6932 138.841 70.0341L145.114 71.5341C148.159 72.2159 150.955 73.125 153.5 74.2614C156.045 75.3977 158.25 76.7955 160.114 78.4545C161.977 80.1136 163.42 82.0682 164.443 84.3182C165.489 86.5682 166.023 89.1477 166.045 92.0568C166.023 96.3295 164.932 100.034 162.773 103.17C160.636 106.284 157.545 108.705 153.5 110.432C149.477 112.136 144.625 112.989 138.943 112.989C133.307 112.989 128.398 112.125 124.216 110.398C120.057 108.67 116.807 106.114 114.466 102.727C112.148 99.3182 110.932 95.1023 110.818 90.0795H125.102C125.261 92.4205 125.932 94.375 127.114 95.9432C128.318 97.4886 129.92 98.6591 131.92 99.4545C133.943 100.227 136.227 100.614 138.773 100.614C141.273 100.614 143.443 100.25 145.284 99.5227C147.148 98.7955 148.591 97.7841 149.614 96.4886C150.636 95.1932 151.148 93.7045 151.148 92.0227C151.148 90.4545 150.682 89.1364 149.75 88.0682C148.841 87 147.5 86.0909 145.727 85.3409C143.977 84.5909 141.83 83.9091 139.284 83.2955L131.682 81.3864C125.795 79.9545 121.148 77.7159 117.739 74.6705C114.33 71.625 112.636 67.5227 112.659 62.3636C112.636 58.1364 113.761 54.4432 116.034 51.2841C118.33 48.125 121.477 45.6591 125.477 43.8864C129.477 42.1136 134.023 41.2273 139.114 41.2273C144.295 41.2273 148.818 42.1136 152.682 43.8864C156.568 45.6591 159.591 48.125 161.75 51.2841C163.909 54.4432 165.023 58.1023 165.091 62.2614H150.943ZM175.974 112V42.1818H190.736V72.9659H191.656L216.781 42.1818H234.474L208.565 73.4432L234.781 112H217.122L197.997 83.2955L190.736 92.1591V112H175.974ZM256.923 42.1818V112H242.162V42.1818H256.923ZM269.068 112V42.1818H283.83V99.8295H313.761V112H269.068ZM323.537 112V42.1818H338.298V99.8295H368.23V112H323.537ZM415.881 62.2614C415.608 59.5114 414.438 57.375 412.369 55.8523C410.301 54.3295 407.494 53.5682 403.949 53.5682C401.54 53.5682 399.506 53.9091 397.847 54.5909C396.188 55.25 394.915 56.1705 394.028 57.3523C393.165 58.5341 392.733 59.875 392.733 61.375C392.688 62.625 392.949 63.7159 393.517 64.6477C394.108 65.5795 394.915 66.3864 395.938 67.0682C396.96 67.7273 398.142 68.3068 399.483 68.8068C400.824 69.2841 402.256 69.6932 403.778 70.0341L410.051 71.5341C413.097 72.2159 415.892 73.125 418.438 74.2614C420.983 75.3977 423.188 76.7955 425.051 78.4545C426.915 80.1136 428.358 82.0682 429.381 84.3182C430.426 86.5682 430.96 89.1477 430.983 92.0568C430.96 96.3295 429.869 100.034 427.71 103.17C425.574 106.284 422.483 108.705 418.438 110.432C414.415 112.136 409.563 112.989 403.881 112.989C398.244 112.989 393.335 112.125 389.153 110.398C384.994 108.67 381.744 106.114 379.403 102.727C377.085 99.3182 375.869 95.1023 375.756 90.0795H390.04C390.199 92.4205 390.869 94.375 392.051 95.9432C393.256 97.4886 394.858 98.6591 396.858 99.4545C398.881 100.227 401.165 100.614 403.71 100.614C406.21 100.614 408.381 100.25 410.222 99.5227C412.085 98.7955 413.528 97.7841 414.551 96.4886C415.574 95.1932 416.085 93.7045 416.085 92.0227C416.085 90.4545 415.619 89.1364 414.688 88.0682C413.778 87 412.438 86.0909 410.665 85.3409C408.915 84.5909 406.767 83.9091 404.222 83.2955L396.619 81.3864C390.733 79.9545 386.085 77.7159 382.676 74.6705C379.267 71.625 377.574 67.5227 377.597 62.3636C377.574 58.1364 378.699 54.4432 380.972 51.2841C383.267 48.125 386.415 45.6591 390.415 43.8864C394.415 42.1136 398.96 41.2273 404.051 41.2273C409.233 41.2273 413.756 42.1136 417.619 43.8864C421.506 45.6591 424.528 48.125 426.688 51.2841C428.847 54.4432 429.96 58.1023 430.028 62.2614H415.881Z" fill="#FAA916"/>
</svg>
